<svg version="1.1" id="Layer_1" xmlns="http://www.w3.org/2000/svg" xmlns:xlink="http://www.w3.org/1999/xlink" x="0px" y="0px"
	 width="100%" viewBox="0 0 496 496" enable-background="new 0 0 496 496" xml:space="preserve">
<path fill="#000000" opacity="1.000000" stroke="none" 
	d="
M289.978577,356.505188 
	C288.417328,360.606964 285.957642,363.099060 281.761871,363.248596 
	C276.811310,363.425049 273.735840,360.764008 272.115601,356.008240 
	C263.854889,362.974640 255.281189,364.343079 246.032074,359.131500 
	C244.988693,358.543579 244.109497,358.814148 243.238632,359.375763 
	C235.444916,364.401886 228.046585,362.842377 220.736313,357.733368 
	C217.509827,361.128845 213.911545,363.682953 209.237823,364.247772 
	C202.895752,365.014313 197.807220,362.884705 193.931168,357.784668 
	C193.077942,356.662018 192.389267,354.855774 190.478577,355.669861 
	C188.839066,356.368378 189.539810,357.919128 189.674088,359.198273 
	C190.181961,364.036469 187.325333,366.196869 183.164932,367.128845 
	C178.362183,368.204742 173.929398,366.465393 172.931854,362.335938 
	C170.832321,353.644745 167.466110,345.173096 167.662949,336.015106 
	C167.687744,334.861420 168.081497,333.405792 167.043015,332.708038 
	C159.726425,327.791931 159.790527,319.601044 158.003662,312.312164 
	C156.660370,306.832642 155.720367,301.231323 154.973114,295.634552 
	C154.061966,288.810333 153.850204,282.399139 164.625366,280.172150 
	C166.275497,279.831116 168.408905,279.970001 168.655701,277.305206 
	C168.878235,274.902100 167.219376,274.200470 165.622772,273.284576 
	C162.853592,271.696075 160.285080,269.837616 158.532257,267.101044 
	C157.356400,265.265259 155.919418,263.207733 158.513504,261.473785 
	C160.737854,259.986969 162.136719,261.519836 163.441895,263.254547 
	C165.592911,266.113495 168.148163,268.483063 171.976944,268.725250 
	C175.159622,268.926575 177.868546,267.973999 179.727402,265.203125 
	C175.442444,260.697601 175.556168,260.253937 181.783112,258.120087 
	C183.635162,257.485413 185.210449,256.765717 184.951889,254.348648 
	C183.155136,252.226471 178.420715,254.782822 178.228836,250.691437 
	C178.059402,247.078598 181.954193,248.299896 183.913971,247.185226 
	C182.776382,242.047546 178.747284,239.058212 173.058868,239.344406 
	C168.074463,239.595184 164.289215,241.622116 161.885391,246.393951 
	C159.733017,250.666626 160.783371,255.115692 160.576401,259.667419 
	C156.495178,259.847504 154.666199,258.203033 154.687561,254.475357 
	C154.727478,247.509537 156.374359,241.191055 162.459534,237.005829 
	C164.864731,235.351593 165.674713,233.687866 164.911270,230.773315 
	C164.116531,227.739243 163.993073,224.530487 163.559250,221.400436 
	C163.109848,218.157822 162.108688,215.716446 158.482925,214.304840 
	C154.062347,212.583817 151.432053,208.640289 150.839706,203.890854 
	C149.873276,196.141861 149.123077,188.358017 148.566864,180.568497 
	C148.190948,175.304169 150.282913,174.193329 155.366425,174.289444 
	C159.355865,174.364883 163.548523,173.226837 167.339447,171.800247 
	C171.848236,170.103500 174.347687,170.561401 176.016617,175.035889 
	C178.991653,183.012100 180.471497,191.403580 182.131714,199.702759 
	C183.026978,204.178009 180.913391,208.254517 177.499908,211.291977 
	C175.451111,213.115051 175.094635,214.993149 175.764954,217.516830 
	C176.863632,221.653229 177.712601,225.855957 178.788467,230.562546 
	C182.662308,228.668854 183.848923,224.566391 186.960068,222.896606 
	C195.123062,218.515411 197.058075,213.505386 193.307114,204.058502 
	C188.360764,191.600937 193.904404,179.819931 201.514404,169.627594 
	C204.334991,165.849915 206.048767,162.104965 206.669678,157.569275 
	C207.508957,151.438538 209.285110,145.533997 211.813293,139.889130 
	C213.968597,135.076859 216.452148,134.083664 221.356079,135.749832 
	C226.246078,137.411255 229.886276,140.885956 233.553528,144.270081 
	C235.375443,145.951355 237.194733,147.072723 239.787155,146.578384 
	C247.389877,145.128616 255.007278,145.152420 262.601288,146.635986 
	C265.373932,147.177658 267.357239,146.125031 269.229828,144.162033 
	C272.341614,140.899979 275.685638,137.855774 279.947632,136.119324 
	C285.743286,133.758041 288.089966,134.679230 290.539612,140.402847 
	C292.973145,146.088821 294.484894,152.062698 295.309723,158.175827 
	C295.857147,162.232590 297.409668,165.504578 299.959015,168.860641 
	C309.503082,181.424850 313.097626,195.309509 306.647095,210.484131 
	C305.104645,214.112640 305.361877,216.266983 308.903015,218.190369 
	C314.711304,221.345200 318.812469,226.447662 323.167236,231.743317 
	C324.848236,228.434647 324.853760,225.088531 325.594147,221.947968 
	C326.128082,219.683182 325.169800,218.137039 322.910553,217.310059 
	C319.676270,216.126160 317.974091,213.472702 318.367249,210.282990 
	C320.075623,196.421906 322.842926,182.927200 334.002045,172.980713 
	C335.885773,171.301697 337.871094,169.816757 340.180145,168.797958 
	C345.586853,166.412369 349.036560,169.028320 348.137695,175.126190 
	C346.853485,183.838257 345.335663,192.518280 343.780914,201.187469 
	C341.961609,211.331833 340.091827,221.469589 338.023315,231.565002 
	C337.524567,233.999069 337.737854,235.607986 339.846039,237.115158 
	C351.409851,245.382324 348.875610,266.634064 336.617615,272.936798 
	C334.772552,273.885498 333.128418,274.849518 333.360291,277.380554 
	C333.611481,280.123016 335.764923,280.423340 337.663452,280.690002 
	C348.053162,282.149231 349.760864,292.968658 344.306122,300.352478 
	C343.325073,301.680450 342.090637,302.838684 340.881042,303.977417 
	C335.202698,309.322906 330.232666,314.597717 328.763672,323.163086 
	C327.856232,328.454102 324.575256,333.281097 325.071716,339.311096 
	C325.394775,343.234741 322.101868,346.261261 319.230530,348.827942 
	C316.244690,351.497009 314.563873,354.544006 313.848053,358.581635 
	C312.738983,364.837128 310.186493,366.583038 304.271362,366.392456 
	C298.578094,366.208984 295.411194,362.553955 296.172272,356.876251 
	C296.630859,353.455048 297.642090,350.009460 294.782684,346.916626 
	C290.425140,348.724396 290.474915,352.533905 289.978577,356.505188 
M300.981873,198.354370 
	C303.155823,195.924301 303.287537,193.010803 303.190552,189.938858 
	C302.947052,182.225739 298.727722,176.442566 293.904663,171.098175 
	C291.170868,168.068878 289.985748,164.880280 289.579498,160.857269 
	C288.904663,154.173950 287.584930,147.538803 284.158630,141.445419 
	C279.259003,143.240524 275.778656,145.733261 273.649719,149.760239 
	C274.949829,152.027771 278.893433,153.001724 276.815582,156.021042 
	C274.805389,158.942047 272.356049,156.309174 270.192413,155.455719 
	C257.769562,150.555466 245.345276,150.077881 232.764801,155.000412 
	C230.401154,155.925278 227.453949,159.197021 225.227554,155.959595 
	C222.784531,152.407120 228.045334,151.954529 229.186569,149.303452 
	C227.601608,146.611343 224.956573,144.936493 222.399261,143.110184 
	C219.329788,140.918121 217.717270,141.972610 216.448227,145.149475 
	C214.458160,150.131332 212.907852,155.279388 212.520950,160.564407 
	C212.210190,164.809189 211.143356,168.240067 207.937744,171.128418 
	C197.668442,180.381378 197.971573,192.624817 199.471512,204.691742 
	C200.278152,211.181030 205.365509,215.751297 210.626175,219.471313 
	C231.622314,234.318451 254.311600,236.474731 277.883850,227.123611 
	C287.777313,223.198868 296.993408,217.568069 301.822449,207.093063 
	C303.234467,204.030167 303.348846,201.343964 300.981873,198.354370 
M187.437317,324.996796 
	C190.339615,324.637268 192.821991,322.942596 196.121216,323.496643 
	C203.005188,324.652649 204.254059,323.757568 206.358032,317.019440 
	C207.453903,313.509857 210.233994,313.896179 212.708405,313.332581 
	C215.040131,312.801514 216.342255,313.899292 217.403412,315.982086 
	C220.559921,322.177582 223.472931,323.083099 229.671783,319.863464 
	C231.175659,319.082367 232.344421,318.157959 234.231644,318.987946 
	C242.065552,322.433350 250.321930,320.382050 258.382751,320.436920 
	C261.674286,320.459320 263.697174,317.790833 263.620148,314.262390 
	C263.543213,310.737396 261.610260,308.735962 258.093079,308.364777 
	C256.936707,308.242706 255.760010,308.325287 254.598846,308.234436 
	C250.179535,307.888550 249.486008,306.584442 252.048447,303.071838 
	C255.480774,298.366760 259.112579,293.807404 262.555969,289.110168 
	C264.408539,286.583038 266.039490,286.821106 267.523926,289.285126 
	C271.858246,296.479645 277.328857,303.303284 275.321899,312.644562 
	C275.082428,313.759216 275.246490,314.971436 275.296143,316.135345 
	C275.451569,319.779388 277.507874,321.498169 281.022705,321.736938 
	C285.831207,322.063568 288.744995,319.966644 288.640533,314.791504 
	C288.409485,303.341858 296.469543,297.336548 303.046417,290.130890 
	C303.936005,290.772919 304.533569,290.972748 304.700958,291.359009 
	C308.274323,299.605255 314.319092,307.141418 311.479950,317.187531 
	C310.809143,319.561188 310.582001,322.735443 313.554260,324.319031 
	C316.158234,325.706451 318.793427,324.830963 321.204010,323.582855 
	C323.335938,322.479065 324.209290,320.196350 324.299652,318.131256 
	C324.592163,311.443878 328.565094,307.265900 333.301575,303.343445 
	C335.593323,301.445557 337.549774,299.132294 339.589691,296.943390 
	C342.141754,294.204987 343.063782,291.170868 340.410919,288.021149 
	C338.287659,285.500153 333.057007,285.222931 330.334625,287.520569 
	C328.700165,288.900085 327.427612,290.707123 325.983673,292.314178 
	C324.917236,293.501099 324.253357,295.249023 322.155914,295.109070 
	C319.990631,293.649109 319.862396,291.153564 319.133148,289.006042 
	C316.924133,282.500671 314.594299,280.853638 307.777527,281.348633 
	C305.966248,281.480164 304.329407,281.707550 302.474243,280.867004 
	C295.509857,277.711700 292.626434,278.740326 288.281311,285.205505 
	C287.063690,287.017273 286.579437,289.592133 283.978241,290.231659 
	C281.515594,288.264343 281.561676,285.325043 280.363403,283.004364 
	C278.315460,279.038147 275.126770,276.078094 270.856049,277.500488 
	C266.078613,279.091644 262.164764,277.263397 257.795685,276.722473 
	C250.218307,275.784332 242.537445,276.038757 234.882385,277.001617 
	C230.888916,277.503967 229.231903,279.289551 229.383926,283.118500 
	C229.536636,286.964539 231.413010,288.759521 235.381012,288.820343 
	C238.398483,288.866577 241.664856,287.880829 244.906662,290.232330 
	C241.144165,296.991791 236.686462,302.957520 231.774429,308.532013 
	C229.397125,307.416473 228.988953,305.487885 228.262650,303.883789 
	C225.172531,297.058899 222.118515,290.214905 219.220612,283.306885 
	C217.817612,279.962463 215.529694,278.329773 211.940857,278.369934 
	C199.906860,278.504578 197.964722,280.202667 196.277924,292.150299 
	C196.184937,292.808960 196.210602,293.485596 196.101791,294.140717 
	C195.025192,300.622314 193.931870,307.101166 192.852249,313.527496 
	C189.090759,313.453430 186.097717,312.955048 183.147690,313.790619 
	C179.687973,314.770569 178.345734,313.038177 177.739059,309.844513 
	C176.561569,303.645844 174.971741,297.522736 173.888626,291.309753 
	C173.063751,286.578064 170.574463,284.682190 165.910461,285.357086 
	C161.384705,286.011963 159.623398,288.700500 160.203308,293.078949 
	C161.472183,302.659363 163.974869,311.969482 166.543915,321.256409 
	C166.987335,322.859283 168.190414,323.945770 169.896500,324.676270 
	C175.448334,327.053375 181.004761,326.787018 187.437317,324.996796 
M277.687866,244.355164 
	C248.837433,258.856415 212.211243,245.936523 201.211670,223.637604 
	C199.991119,221.163239 198.344559,221.137985 196.394089,222.583908 
	C192.505173,225.466888 188.876083,228.575439 186.049591,232.620956 
	C184.287903,235.142441 184.286301,236.955109 186.545685,239.086899 
	C190.881744,243.178146 191.871048,248.388611 191.452484,254.159424 
	C191.003433,260.350128 187.738739,265.089172 184.118576,269.694702 
	C182.956284,271.173401 181.460144,272.626373 182.601028,274.531097 
	C183.810394,276.550171 185.830078,275.445404 187.581390,275.176086 
	C193.000427,274.342621 198.407806,273.394867 203.851440,272.766418 
	C225.574036,270.258545 247.397812,270.262421 269.199585,270.829010 
	C284.157288,271.217743 299.073547,272.680023 313.866638,275.107391 
	C315.760010,275.418060 318.030365,276.756317 319.339935,274.614136 
	C320.665802,272.445190 318.448669,271.028992 317.246613,269.518005 
	C308.614075,258.667389 308.342194,249.737411 316.385712,238.293991 
	C317.327179,236.954620 318.004181,235.736862 316.912689,234.240463 
	C312.984650,228.855240 308.335083,224.287811 302.180634,220.728210 
	C296.659882,231.456970 288.790802,239.094574 277.687866,244.355164 
M272.642090,331.440399 
	C275.110687,338.916718 279.761017,345.828125 278.273010,354.328339 
	C277.954529,356.147491 279.158661,357.620270 281.216919,357.553986 
	C283.727142,357.473114 284.630676,355.637115 284.682373,353.469604 
	C284.885864,344.936127 291.888214,341.102875 296.383759,335.222015 
	C301.375977,342.863007 302.819580,348.230743 301.981171,356.336700 
	C301.755371,358.519836 301.704315,360.689209 304.055664,361.274933 
	C306.927185,361.990295 307.980743,359.418610 308.152710,357.362610 
	C308.670563,351.171509 311.963745,346.945129 316.774078,343.507843 
	C317.692108,342.851868 318.393585,341.830109 319.043243,340.874023 
	C320.514343,338.709015 321.762756,336.432404 318.961212,334.349976 
	C316.424713,332.464630 314.703064,334.122437 312.945587,335.832184 
	C311.233215,337.498077 310.617554,340.324005 307.602081,340.935333 
	C304.268860,337.313629 305.662781,328.145691 296.578766,331.196259 
	C288.222473,325.484772 288.209198,336.623474 283.204315,337.918091 
	C281.153107,335.928711 281.135132,333.034363 279.795746,330.786346 
	C277.730011,327.319122 275.485748,327.285339 272.642090,331.440399 
M324.302765,263.116821 
	C323.586365,263.751007 322.869995,264.385193 322.152222,265.020599 
	C325.985382,269.192230 329.166168,269.814545 333.640686,267.383057 
	C339.516693,264.189911 342.886322,256.388580 341.226471,249.820251 
	C339.488953,242.944305 335.098938,239.298889 328.542603,239.287704 
	C323.056885,239.278351 319.455139,241.974503 318.113129,247.141647 
	C319.987762,248.382599 323.991119,246.855377 323.857361,250.495453 
	C323.708649,254.543854 319.114380,252.374924 317.155945,254.234589 
	C316.812195,257.442444 319.204834,257.498840 321.285431,258.014648 
	C323.598236,258.587982 326.144257,259.105225 324.302765,263.116821 
M243.583115,348.896118 
	C245.343384,343.924744 244.577179,339.045715 242.868469,334.272614 
	C240.781784,328.443634 238.202026,326.704712 232.500671,326.954346 
	C226.926147,327.198456 223.752884,329.843201 222.371521,335.489258 
	C221.456314,339.230042 221.159515,342.909424 222.106781,346.800110 
	C223.378754,352.024475 226.099564,355.546204 231.463821,356.544464 
	C236.589111,357.498169 240.273926,355.246735 243.583115,348.896118 
M339.185303,176.170990 
	C329.239319,184.751511 325.493469,196.214294 323.950775,208.739456 
	C323.676941,210.962906 324.959747,211.610474 326.603302,212.268295 
	C331.238098,214.123398 332.654144,217.442307 331.420929,222.278870 
	C330.530731,225.770401 329.511047,229.351395 330.901123,233.097321 
	C334.891846,213.772034 339.999878,194.681717 341.787933,174.528320 
	C340.783417,175.144821 340.225067,175.487503 339.185303,176.170990 
M260.797180,355.726868 
	C268.676147,352.864868 271.791016,346.058655 269.729401,336.209320 
	C268.339722,329.570129 263.517334,326.552917 255.385910,326.925171 
	C252.019241,327.079285 249.990723,328.331207 249.804565,331.843964 
	C249.505524,337.487000 249.335098,343.138306 248.942581,348.774445 
	C248.546249,354.465088 249.416870,355.634888 254.973923,355.918396 
	C256.630066,356.002899 258.297211,355.871674 260.797180,355.726868 
M195.343185,341.793915 
	C195.390579,343.457916 195.255585,345.151062 195.516098,346.781006 
	C196.829193,354.996552 201.594193,359.394318 208.203278,358.628967 
	C214.661255,357.881165 217.927658,353.107422 217.791977,344.615417 
	C217.648621,335.641388 213.667877,329.775543 207.397949,329.299194 
	C200.427444,328.769592 197.240433,331.857819 195.343185,341.793915 
M176.930603,354.746704 
	C177.354813,356.519562 177.735992,358.304199 178.215973,360.061829 
	C178.653015,361.662262 179.590195,362.843597 181.431320,362.395264 
	C183.216217,361.960632 184.348083,360.801910 184.156235,358.793091 
	C184.045731,357.636169 183.930618,356.466949 183.662216,355.340302 
	C182.968185,352.426910 183.657761,350.559784 186.945358,349.992126 
	C188.749725,349.680542 190.768219,348.889130 190.277298,346.477539 
	C189.802383,344.144562 187.738098,344.212341 185.846603,344.330627 
	C185.514481,344.351379 185.177292,344.341034 184.850937,344.395782 
	C182.971298,344.710968 181.459335,344.277435 181.088165,342.184967 
	C180.708694,340.045715 182.458603,339.843781 183.886780,339.467377 
	C185.170685,339.129028 186.475006,338.867401 187.771881,338.578949 
	C190.140442,338.052185 191.222549,336.609375 190.632858,334.220520 
	C190.040863,331.822327 188.407440,331.145966 186.060089,331.696350 
	C183.151367,332.378387 180.208481,332.913300 177.291794,333.563080 
	C173.841766,334.331665 172.742477,336.504822 173.526550,339.868378 
	C174.619202,344.555542 175.629410,349.261932 176.930603,354.746704 
M176.057358,204.304855 
	C176.996719,202.099762 177.288559,199.943298 175.584213,197.481995 
	C172.482208,200.254715 169.216736,201.092239 165.570099,198.616150 
	C163.867828,202.373840 160.711456,202.522980 157.547440,202.350296 
	C156.754761,206.324921 158.819733,208.020569 161.847107,209.384033 
	C167.891388,212.106232 171.868820,208.920990 176.057358,204.304855 
z"/>
<path fill="#000000" opacity="1.000000" stroke="none" 
	d="
M187.604599,215.419739 
	C185.810669,216.873352 184.803040,218.776825 182.066879,219.407761 
	C180.535110,213.872086 186.146271,212.223709 187.203629,208.012604 
	C191.030426,210.738541 190.561707,212.929932 187.604599,215.419739 
z"/>
<path fill="#000000" opacity="1.000000" stroke="none" 
	d="
M235.847458,210.267563 
	C232.368896,207.463776 230.210190,204.132858 228.607666,200.416473 
	C227.876602,198.721100 227.018127,196.836441 228.842667,195.390961 
	C230.457184,194.111847 231.946274,195.197174 233.351822,196.192810 
	C235.601379,197.786331 238.214386,198.665771 240.881317,198.311600 
	C244.149872,197.877518 248.112244,197.505035 245.543640,192.265808 
	C244.807785,190.764847 245.145508,189.032715 246.676529,188.353333 
	C249.330521,187.175690 252.246658,187.350739 254.941971,188.253220 
	C256.476349,188.766983 256.875397,190.388809 256.703796,192.031006 
	C256.137085,197.454147 258.521973,199.460419 263.960541,198.147324 
	C265.585571,197.754974 267.156525,197.269913 268.438812,196.078247 
	C269.755127,194.854996 271.366760,194.186630 272.966522,195.323090 
	C274.945282,196.728775 273.945251,198.582901 273.295197,200.288574 
	C268.020752,214.128632 251.156876,219.498138 237.811401,211.586426 
	C237.239166,211.247162 236.698578,210.854553 235.847458,210.267563 
z"/>
<path fill="#000000" opacity="1.000000" stroke="none" 
	d="
M223.088486,176.686279 
	C229.491241,173.631317 235.573349,174.058075 239.134140,177.620743 
	C240.622971,179.110352 241.819702,180.848938 240.310699,182.845978 
	C238.510818,185.227982 236.921112,183.602371 235.375336,182.243271 
	C232.347351,179.580994 229.102539,179.691010 225.771713,181.644699 
	C224.095444,182.627945 222.281006,183.386154 221.001755,181.341385 
	C219.745300,179.333038 221.097519,177.950974 223.088486,176.686279 
z"/>
<path fill="#000000" opacity="1.000000" stroke="none" 
	d="
M275.406616,181.322815 
	C271.691223,179.610443 268.673615,179.949066 266.021332,182.737717 
	C265.089417,183.717545 263.914215,184.559830 262.537079,183.495560 
	C261.142365,182.417694 261.027191,180.789291 261.771301,179.443390 
	C263.511932,176.294891 266.441589,174.925980 269.962830,174.698181 
	C274.111542,174.429794 277.906311,175.231537 280.764862,178.511200 
	C281.457550,179.305923 281.357147,180.439651 280.655426,181.272720 
	C279.129364,183.084320 277.426178,182.406540 275.406616,181.322815 
z"/>
<path fill="#000000" opacity="1.000000" stroke="none" 
	d="
M207.166077,300.203735 
	C207.717972,298.485107 207.483749,296.795868 209.269287,295.723053 
	C211.904358,296.743683 212.405975,299.169983 212.511566,301.612732 
	C212.568283,302.924561 211.265106,303.563171 210.053604,303.681915 
	C207.836853,303.899139 207.173370,302.481415 207.166077,300.203735 
z"/>
<path fill="#000000" opacity="1.000000" stroke="none" 
	d="
M229.350586,337.845123 
	C229.910522,335.425568 230.531860,333.501404 233.130341,333.585907 
	C235.636612,333.667389 236.381851,335.711151 236.886002,337.589874 
	C237.706421,340.647156 237.562317,343.827606 237.042084,346.917542 
	C236.762772,348.576538 235.700394,349.993805 233.761780,350.140717 
	C231.819748,350.287872 230.605789,349.072601 230.064041,347.433441 
	C229.081131,344.459473 228.227936,341.414520 229.350586,337.845123 
z"/>
<path fill="#000000" opacity="1.000000" stroke="none" 
	d="
M262.736816,337.755768 
	C263.745453,341.386627 262.747253,344.419281 261.725189,347.406586 
	C261.192932,348.962250 259.857697,349.845276 258.205078,349.632263 
	C256.186981,349.372192 256.215210,347.713287 256.283447,346.171692 
	C256.401154,343.513275 256.481567,340.850769 256.700592,338.200165 
	C256.841888,336.490326 256.186249,334.158142 258.732208,333.721069 
	C261.351135,333.271454 262.048798,335.362488 262.736816,337.755768 
z"/>
<path fill="#000000" opacity="1.000000" stroke="none" 
	d="
M205.478149,351.887146 
	C202.006668,348.148468 201.841034,343.942688 202.519775,339.600555 
	C202.817184,337.697815 203.702774,336.043274 205.915436,335.951416 
	C207.857803,335.870758 208.820480,337.283081 209.472702,338.890869 
	C210.897232,342.402435 210.537399,346.059509 209.996307,349.632690 
	C209.679489,351.724792 207.983017,352.520050 205.478149,351.887146 
z"/>
</svg>